<?xml version="1.0" standalone="no"?>

<!-- Translated from PostScript by ps2svg.ps. Ross Inglis. ringlis@ipv.com -->

<!DOCTYPE svg PUBLIC "-//W3C//DTD SVG 1.0//EN" "http://www.w3.org/TR/2001/REC-SVG-20010904/DTD/svg10.dtd">

<svg width="100%" viewBox="0 0 594 840" stroke="rgb(0,0,0)" fill="none">
<style type="text/css">text {font-family:Times-Roman;font-size:10;fill:black;stroke:none}</style>
<g>
<path stroke="none" fill="rgb(229,229,229)" d="M15.937,39.937L567.937,39.937L567.937,716.437L15.937,716.437L15.937,39.937Z"/>
<path d="M15.937,39.937L567.937,39.937L567.937,716.437L15.937,716.437L15.937,39.937Z"/>
<path stroke="none" fill="rgb(255,255,255)" d="M285.187,39.937L567.937,39.937L567.937,78.187L285.187,78.187L285.187,39.937Z"/>
<path d="M285.187,39.937L567.937,39.937L567.937,78.187L285.187,78.187L285.187,39.937Z"/>
<path stroke="none" fill="rgb(0,0,0)" d="M175.687,162.937C180.006,162.999,173.737,169.08,171.937,168.937C174.75,169.249,176.25,169.5,174.187,171.187C177.999,171.249,176.348,173.782,174.937,176.437C173.749,179.499,170.749,182.25,168.187,181.687C165.499,181.249,167.621,182.837,165.187,186.187C164.499,186.999,164.749,187.5,161.437,186.937C158.749,186,163.249,189.999,156.937,189.937C150.249,189.999,148.5,189,145.687,186.187C142.5,183,139.749,183.75,139.687,182.437C139.249,181.249,139.5,176.749,138.937,175.687C138,174.249,136.749,174.249,135.937,177.937C135.75,181.749,140.25,182.25,133.687,186.937C135.75,190.749,134.499,191.749,130.687,193.687C130.999,199.999,129.201,203.363,119.437,208.687C115.249,210.75,106.999,212.749,104.437,208.687C102.499,204.75,102.999,206.499,96.187,205.687C90,204.999,87.249,202.5,86.437,197.437C85.749,192.999,82.749,195,78.937,194.437C75.249,194.499,76.999,192.75,77.437,191.437C77.499,190.749,75.249,192.499,71.437,192.187C67.749,191.499,64.249,185.499,69.187,180.937C74.749,175.999,66.499,180.75,63.937,182.437C61.999,183.75,60.499,181.749,60.937,180.187C61.5,178.749,58.749,180.75,57.187,180.937C56.25,180.75,51.007,180.187,51.937,171.937C52.249,170.25,51.499,170.499,49.687,168.937C48,168,45.75,164.25,48.187,158.437C51.249,153.249,48.999,150,48.187,145.687C46.999,141,48,138.249,51.187,137.437C54.499,136.249,54,133.79,54.187,130.687C57,130.5,58.999,129.249,58.687,124.687C62.25,124.5,61.749,126.75,62.437,129.937C63.249,133.249,65.749,129,66.187,126.937C66.75,124.999,67.5,124.999,72.187,124.687C74.749,116.25,74.749,120.499,75.187,117.187C79.999,117.499,79.5,116.749,83.437,113.437C87,110.749,88.249,115.5,91.687,118.687C95.749,121.5,94.249,122.749,96.187,118.687C98.25,114.75,98.499,118.999,101.437,119.437C104.499,119.499,100.999,115.749,105.187,114.187C109.5,113.25,105,113.749,103.687,111.187C102,108.75,94.999,103.5,101.437,101.437C108.499,99.499,103.5,99.75,94.687,99.187C85.999,99.249,73.749,87.499,96.937,72.937C96.937,72.937,117.249,53.25,117.187,53.437C117.249,53.749,175.249,162.999,175.687,162.937Z"/>
<path stroke-width="0.2" d="M389.437,210.187L511.687,210.187"/>
<path stroke-width="0.2" d="M394.687,212.437L516.937,212.437"/>
<path stroke-width="0.2" d="M415.687,215.437L537.937,215.437"/>
<path stroke-width="0.2" d="M399.937,217.687L522.187,217.687"/>
<path stroke-width="0.2" d="M402.187,222.937L524.437,222.937"/>
<path stroke-width="0.2" d="M402.937,225.187L525.187,225.187"/>
<path stroke-width="0.2" d="M393.187,228.187L515.437,228.187"/>
<path stroke-width="0.2" d="M400.687,232.687L522.937,232.687"/>
<path stroke-width="0.2" d="M387.937,234.937L510.187,234.937"/>
<path stroke-width="0.2" d="M393.937,237.937L516.187,237.937"/>
<path stroke-width="0.2" d="M393.187,240.187L515.437,240.187"/>
<path stroke-width="0.2" d="M396.187,243.187L518.437,243.187"/>
<path stroke-width="0.2" d="M386.437,245.437L508.687,245.437"/>
<path stroke-width="0.2" d="M393.187,248.437L515.437,248.437"/>
<path stroke-width="0.2" d="M414.187,250.687L536.437,250.687"/>
<path stroke-width="0.2" d="M397.687,252.937L519.937,252.937"/>
<path stroke-width="0.2" d="M398.437,255.187L520.687,255.187"/>
<path stroke-width="0.2" d="M400.687,258.187L522.937,258.187"/>
<path stroke-width="0.2" d="M384.187,260.437L506.437,260.437"/>
<path stroke-width="0.2" d="M380.437,265.687L502.687,265.687"/>
<path stroke-width="0.2" d="M379.687,268.687L501.937,268.687"/>
<path stroke-width="0.2" d="M386.437,270.937L508.687,270.937"/>
<path stroke-width="0.2" d="M394.687,275.437L516.187,275.437"/>
<path stroke-width="0.2" d="M381.937,278.437L504.187,278.437"/>
<path stroke-width="0.2" d="M379.687,280.687L501.187,280.687"/>
<path stroke-width="0.2" d="M383.437,282.937L504.937,282.937"/>
<path stroke-width="0.2" d="M370.687,285.937L492.187,285.937"/>
<path stroke-width="0.2" d="M382.687,288.187L504.187,288.187"/>
<path stroke-width="0.2" d="M356.437,291.187L477.937,291.187"/>
<path stroke-width="0.2" d="M372.187,293.437L494.437,293.437"/>
<path stroke-width="0.2" d="M361.687,295.687L483.937,295.687"/>
<path stroke-width="0.2" d="M365.437,298.687L487.687,298.687"/>
<path stroke-width="0.2" d="M366.937,300.937L489.187,300.937"/>
<path stroke-width="0.2" d="M346.687,303.937L468.937,303.937"/>
<path stroke-width="0.2" d="M338.437,306.187L460.687,306.187"/>
<path stroke-width="0.2" d="M330.937,308.437L453.187,308.437"/>
<path stroke-width="0.2" d="M301.687,344.437L423.937,344.437"/>
<path stroke-width="0.2" d="M314.437,346.687L435.937,346.687"/>
<path stroke-width="0.2" d="M318.187,349.687L440.437,349.687"/>
<path stroke-width="0.2" d="M312.187,351.937L434.437,351.937"/>
<path stroke-width="0.2" d="M327.187,357.187L449.437,357.187"/>
<path stroke-width="0.2" d="M327.937,359.437L449.437,359.437"/>
<path stroke-width="0.2" d="M318.187,362.437L439.687,362.437"/>
<path stroke-width="0.2" d="M335.437,366.937L457.687,366.937"/>
<path stroke-width="0.2" d="M312.937,369.187L435.187,369.187"/>
<path stroke-width="0.2" d="M318.937,372.187L441.187,372.187"/>
<path stroke-width="0.2" d="M317.437,404.437L439.687,404.437"/>
<path stroke-width="0.2" d="M321.937,408.937L444.187,408.937"/>
<path stroke-width="0.2" d="M323.437,411.937L445.687,411.937"/>
<path stroke-width="0.2" d="M329.437,414.937L451.687,414.937"/>
<path stroke-width="0.2" d="M328.687,417.187L450.937,417.187"/>
<path stroke-width="0.2" d="M331.687,419.437L453.937,419.437"/>
<path stroke-width="0.2" d="M321.937,422.437L444.187,422.437"/>
<path stroke-width="0.2" d="M328.687,424.687L450.937,424.687"/>
<path stroke-width="0.2" d="M349.687,427.687L471.937,427.687"/>
<path stroke-width="0.2" d="M333.937,429.937L455.437,429.937"/>
<path stroke-width="0.2" d="M334.687,432.187L456.187,432.187"/>
<path stroke-width="0.2" d="M336.187,435.187L458.437,435.187"/>
<path stroke-width="0.2" d="M320.437,437.437L441.937,437.437"/>
<path stroke-width="0.2" d="M316.687,442.687L438.187,442.687"/>
<path stroke-width="0.2" d="M315.937,444.937L437.437,444.937"/>
<path stroke-width="0.2" d="M322.687,447.937L444.187,447.937"/>
<path stroke-width="0.2" d="M330.187,452.437L452.437,452.437"/>
<path stroke-width="0.2" d="M317.437,454.687L439.687,454.687"/>
<path stroke-width="0.2" d="M315.187,457.687L437.437,457.687"/>
<path stroke-width="0.2" d="M318.937,459.937L441.187,459.937"/>
<path stroke-width="0.2" d="M306.187,462.937L428.437,462.937"/>
<path stroke-width="0.2" d="M300.187,465.187L422.437,465.187"/>
<path stroke-width="0.2" d="M291.937,468.187L414.187,468.187"/>
<path stroke-width="0.2" d="M307.687,470.437L429.937,470.437"/>
<path stroke-width="0.2" d="M261.187,543.187L382.687,543.187"/>
<path stroke-width="0.2" d="M246.187,547.687L368.437,547.687"/>
<path stroke-width="0.2" d="M255.937,550.687L378.187,550.687"/>
<path stroke-width="0.2" d="M253.687,553.687L375.937,553.687"/>
<path stroke-width="0.2" d="M230.437,555.937L352.687,555.937"/>
<path stroke-width="0.2" d="M244.687,558.937L366.937,558.937"/>
<path stroke-width="0.2" d="M238.687,561.187L360.937,561.187"/>
<path stroke-width="0.2" d="M230.437,564.187L352.687,564.187"/>
<path stroke-width="0.2" d="M216.937,565.687L338.437,565.687"/>
<path stroke-width="0.2" d="M104.437,571.687L226.687,572.437"/>
<path stroke-width="0.2" d="M98.437,567.187L220.687,567.937"/>
<path stroke-width="0.2" d="M91.687,564.937L213.937,564.937"/>
<path stroke-width="0.2" d="M96.937,561.937L219.187,561.937"/>
<path stroke-width="0.2" d="M73.687,559.687L195.937,559.687"/>
<path stroke-width="0.2" d="M87.937,556.687L210.187,557.437"/>
<path stroke-width="0.2" d="M81.937,554.437L204.187,554.437"/>
<path stroke-width="0.2" d="M73.687,551.437L195.937,551.437"/>
<path stroke-width="0.2" d="M73.687,549.187L195.937,549.937"/>
<path stroke-width="0.2" d="M84.937,540.187L207.187,540.187"/>
<path stroke-width="0.2" d="M79.687,535.687L201.937,535.687"/>
<path stroke-width="0.2" d="M72.187,532.687L194.437,533.437"/>
<path stroke-width="0.2" d="M78.187,529.687L200.437,530.437"/>
<path stroke-width="0.2" d="M54.937,527.437L177.187,527.437"/>
<path stroke-width="0.2" d="M69.187,525.187L191.437,525.187"/>
<path stroke-width="0.2" d="M63.187,522.187L185.437,522.187"/>
<path stroke-width="0.2" d="M54.937,519.187L177.187,519.937"/>
<path stroke-width="0.2" d="M54.937,517.687L176.437,517.687"/>
<path stroke-width="0.2" d="M189.187,196.687L311.437,196.687"/>
<path stroke-width="0.2" d="M177.187,198.937L299.437,198.937"/>
<path stroke-width="0.2" d="M174.187,201.937L296.437,201.937"/>
<path stroke-width="0.2" d="M177.937,204.187L300.187,204.187"/>
<path stroke-width="0.2" d="M165.187,207.187L287.437,207.187"/>
<path stroke-width="0.2" d="M177.187,209.437L299.437,209.437"/>
<path stroke-width="0.2" d="M155.437,212.437L277.687,212.437"/>
<path stroke-width="0.2" d="M167.437,214.687L289.687,214.687"/>
<path stroke-width="0.2" d="M156.937,216.937L279.187,216.937"/>
<path stroke-width="0.2" d="M144.937,219.187L266.437,219.187"/>
<path stroke-width="0.2" d="M162.187,222.187L283.687,222.187"/>
<path stroke-width="0.2" d="M153.937,225.187L276.187,225.187"/>
<path stroke-width="0.2" d="M163.687,226.687L285.937,226.687"/>
<path stroke-width="0.2" d="M152.437,228.937L274.687,228.937"/>
<path stroke-width="0.2" d="M145.687,233.437L267.937,233.437"/>
<path stroke-width="0.2" d="M157.687,235.687L279.937,235.687"/>
<path stroke-width="0.2" d="M147.187,237.937L269.437,237.937"/>
<path stroke-width="0.2" d="M135.187,240.937L256.687,240.937"/>
<path stroke-width="0.2" d="M137.437,243.187L259.687,243.187"/>
<path stroke-width="0.2" d="M144.187,246.187L266.437,246.187"/>
<path stroke-width="0.2" d="M153.937,247.687L276.187,247.687"/>
<path stroke-width="0.2" d="M155.437,231.187L276.937,231.187"/>
<path stroke-width="0.2" d="M103.687,247.687L225.187,247.687"/>
<path stroke-width="0.2" d="M99.937,249.937L222.187,249.937"/>
<path stroke-width="0.2" d="M89.437,252.937L211.687,252.937"/>
<path stroke-width="0.2" d="M77.437,255.187L199.687,255.187"/>
<path stroke="none" fill="rgb(255,255,255)" d="M120.187,390.187C170.81,344.712,248.713,349.19,294.187,399.937C339.286,450.81,334.808,528.713,283.687,573.937C233.188,619.286,155.285,614.809,109.687,564.187C64.712,513.188,69.19,435.286,120.187,390.187Z"/>
<path stroke="none" fill="rgb(255,255,255)" d="M201.937,481.687"/>
<path stroke="none" fill="rgb(255,255,255)" d="M258.187,301.687C306.599,267.758,373.758,279.399,408.187,327.937C442.24,376.599,430.599,443.758,381.937,477.937C333.399,512.241,266.24,500.599,231.937,451.687C197.758,403.399,209.399,336.24,258.187,301.687Z"/>
<path stroke="none" fill="rgb(255,255,255)" d="M319.687,390.187"/>
<path stroke="none" fill="rgb(255,255,255)" d="M195.937,375.937C252.331,345.071,323.071,365.667,354.187,421.687C384.927,478.331,364.331,549.071,307.687,579.937C251.667,610.927,180.927,590.331,150.187,534.187C119.071,477.667,139.667,406.927,195.937,375.937Z"/>
<path stroke="none" fill="rgb(255,255,255)" d="M252.187,477.937"/>
<path stroke="none" fill="rgb(255,255,255)" d="M105.937,256.687C170.063,231.594,242.594,262.935,267.937,327.187C293.404,391.063,262.063,463.594,198.187,489.187C133.935,514.404,61.404,483.063,36.187,418.687C10.594,354.935,41.935,282.404,105.937,256.687Z"/>
<path stroke="none" fill="rgb(255,255,255)" d="M151.687,372.937"/>
<path stroke="none" fill="rgb(255,255,255)" d="M366.187,121.687C415.706,97.699,475.699,118.295,499.687,168.187C524.3,217.706,503.703,277.699,453.937,301.687C404.293,326.3,344.3,305.703,319.687,255.937C295.699,206.293,316.295,146.299,366.187,121.687Z"/>
<path stroke="none" fill="rgb(255,255,255)" d="M409.687,211.687"/>
<path stroke="none" fill="rgb(255,255,255)" d="M228.187,198.187C267.763,185.849,309.848,208.235,321.937,247.687C334.149,287.762,311.763,329.848,271.687,342.187C232.236,354.149,190.151,331.763,177.937,291.937C165.849,252.236,188.235,210.15,228.187,198.187Z"/>
<path stroke="none" fill="rgb(255,255,255)" d="M249.937,270.187"/>
<path stroke="none" fill="rgb(0,0,0)" d="M15.937,71.437C24.249,82.749,24.75,84.75,27.937,81.937C30.75,79.749,31.749,81.249,32.437,82.687C33.75,84.249,30.75,86.749,35.437,88.687C40.749,90.75,41.25,91.749,42.937,89.437C45.249,87.75,39.249,89.25,50.437,88.687C61.249,88.249,70.249,81.75,74.437,75.187C78.249,68.749,77.749,67.249,75.187,63.187C72.75,59.25,68.25,56.749,72.187,57.187C76.249,57.75,75.75,60.75,77.437,56.437C79.749,52.749,80.25,51.249,78.937,48.937C78.249,47.25,74.25,46.749,81.187,45.937C88.249,45.75,91.749,37.556,91.687,39.937L15.937,39.937L15.937,71.437Z"/>
<path stroke="none" fill="rgb(0,0,0)" d="M340.687,55.687"/>
<path stroke-width="3" d="M280.687,44.437L567.937,44.437"/>
<path stroke-width="3" d="M280.687,48.937L567.937,48.937"/>
<path stroke-width="3" d="M280.687,53.437L567.937,53.437"/>
<path stroke-width="3" d="M280.687,58.687L567.937,58.687"/>
<path stroke-width="3" d="M280.687,63.187L567.937,63.187"/>
<path stroke-width="3" d="M280.687,68.437L567.937,68.437"/>
<path stroke-width="3" d="M280.687,72.937L567.937,72.937"/>
<path stroke-width="3" d="M280.687,78.187L567.937,78.187"/>
<path stroke="none" fill="rgb(204,204,204)" d="M243.187,252.187L322.687,234.937L345.937,273.187L367.687,247.687C367.687,247.687,375.999,246.999,375.937,247.687C376.999,174,380.499,120.999,330.187,39.937C330.187,39.937,90.499,39.999,91.687,39.937C138.499,129,162.999,162,213.937,199.687C235.999,228.999,234.526,240.109,237.937,253.687C240,261.999,243.187,252.187,243.187,252.187Z"/>
<path stroke-width="0.2" d="M243.187,252.187L322.687,234.937L345.937,273.187L367.687,247.687C367.687,247.687,375.999,246.999,375.937,247.687C376.999,174,380.499,120.999,330.187,39.937C330.187,39.937,90.499,39.999,91.687,39.937C138.499,129,162.999,162,213.937,199.687C235.999,228.999,234.526,240.109,237.937,253.687C240,261.999,243.187,252.187,243.187,252.187Z"/>
<path stroke="none" fill="rgb(127,127,127)" d="M359.437,484.687C389.266,484.999,402.499,486.249,415.687,489.187C429,491.749,435,493.249,438.937,493.687C442.999,493.749,490.398,537.796,502.687,561.937C507,570.999,514.5,576.999,517.687,579.187C520.5,582,501.187,591.187,501.187,591.187C501.187,591.187,427.999,511.999,427.687,512.437C427.999,513,356.499,510,355.687,509.437C355.5,508.999,351.187,487.687,351.187,487.687C351.187,487.687,358.999,484.999,359.437,484.687Z"/>
<path stroke-width="0.2" d="M359.437,484.687C389.266,484.999,402.499,486.249,415.687,489.187C429,491.749,435,493.249,438.937,493.687C442.999,493.749,490.398,537.796,502.687,561.937C507,570.999,514.5,576.999,517.687,579.187C520.5,582,501.187,591.187,501.187,591.187C501.187,591.187,427.999,511.999,427.687,512.437C427.999,513,356.499,510,355.687,509.437C355.5,508.999,351.187,487.687,351.187,487.687C351.187,487.687,358.999,484.999,359.437,484.687Z"/>
<path stroke="none" fill="rgb(178,178,178)" d="M369.937,496.687C367.999,480.499,365.499,472.5,364.687,471.187L329.437,476.437L323.437,489.187L369.937,496.687Z"/>
<path stroke-width="0.2" d="M369.937,496.687C367.999,480.499,365.499,472.5,364.687,471.187L329.437,476.437L323.437,489.187L369.937,496.687Z"/>
<path stroke="none" fill="rgb(127,127,127)" d="M352.687,493.687C379.999,493.249,399.625,496.749,407.437,498.937C417.999,501.999,424.585,497.135,432.937,505.687C453,526.249,473.499,544.5,496.687,586.687C496.687,586.687,473.499,589.999,473.437,590.437C456,571.5,442.999,563.499,433.687,558.187C424.999,552.499,415.999,543.999,408.187,534.187C399,532.999,379.5,537.499,363.937,537.187C348.499,537.499,352.687,493.687,352.687,493.687Z"/>
<path stroke-width="0.2" d="M352.687,493.687C379.999,493.249,399.625,496.749,407.437,498.937C417.999,501.999,424.585,497.135,432.937,505.687C453,526.249,473.499,544.5,496.687,586.687C496.687,586.687,473.499,589.999,473.437,590.437C456,571.5,442.999,563.499,433.687,558.187C424.999,552.499,415.999,543.999,408.187,534.187C399,532.999,379.5,537.499,363.937,537.187C348.499,537.499,352.687,493.687,352.687,493.687Z"/>
<path stroke="none" fill="rgb(255,255,255)" d="M499.687,582.937C500.499,577.097,516.999,573.499,520.687,571.687C523.999,570.499,526.352,568.988,526.687,579.187C526.674,590.991,540.999,585.999,538.687,624.187C538.5,624,505.687,627.937,505.687,627.937C505.687,627.937,499.957,583.498,499.687,582.937Z"/>
<path stroke-width="0.2" d="M499.687,582.937C500.499,577.097,516.999,573.499,520.687,571.687C523.999,570.499,526.352,568.988,526.687,579.187C526.674,590.991,540.999,585.999,538.687,624.187C538.5,624,505.687,627.937,505.687,627.937C505.687,627.937,499.957,583.498,499.687,582.937Z"/>
<path stroke="none" fill="rgb(0,0,0)" d="M561.937,628.687C342.999,645,216.999,643.999,76.687,600.937L51.937,576.187C59.499,561.999,80.131,560.876,87.187,588.937C89.512,599.291,87,597,100.687,600.937C108.323,603.091,264.999,654,561.187,616.687L561.937,628.687Z"/>
<path stroke="rgb(255,255,255)" stroke-width="0.7" d="M304.687,633.937C391.5,636.499,414.999,634.999,472.687,631.687"/>
<path stroke="rgb(255,255,255)" stroke-width="0.5" d="M213.187,626.437C153.499,618.999,125.924,611.699,90.937,602.437C78.653,599.337,82.566,597.883,82.687,591.937C82.394,582.716,73.749,570.999,58.687,572.437"/>
<path stroke="none" fill="rgb(255,255,255)" d="M72.937,594.937C79.249,592.5,76.249,574.749,57.187,579.937L72.937,594.937Z"/>
<path stroke="none" fill="rgb(127,127,127)" d="M312.187,573.937C311.25,570.499,310.686,571.686,306.187,569.437C307.686,564.186,311.105,565.659,304.687,561.187C302.593,560.298,305.597,556.561,305.437,555.187C306.037,553.485,304.628,548.098,297.187,548.437C292.249,548.749,255.187,535.687,255.187,535.687L229.687,608.437C229.687,608.437,223.999,649.999,224.437,649.687C248.1,649.999,273.344,678.917,297.937,655.687C324.856,629.989,316.98,613.5,316.687,612.937C313.346,603.644,313.237,604.936,314.437,597.187C316.879,586.724,317.016,588.833,318.937,584.437C320.25,581.874,318.937,580.687,318.937,580.687C316.688,578.235,313.08,579.808,310.687,579.187C307.012,577.994,312.187,573.937,312.187,573.937"/>
<path stroke-width="0.2" d="M312.187,573.937C311.25,570.499,310.686,571.686,306.187,569.437C307.686,564.186,311.105,565.659,304.687,561.187C302.593,560.298,305.597,556.561,305.437,555.187C306.037,553.485,304.628,548.098,297.187,548.437C292.249,548.749,255.187,535.687,255.187,535.687L229.687,608.437C229.687,608.437,223.999,649.999,224.437,649.687C248.1,649.999,273.344,678.917,297.937,655.687C324.856,629.989,316.98,613.5,316.687,612.937C313.346,603.644,313.237,604.936,314.437,597.187C316.879,586.724,317.016,588.833,318.937,584.437C320.25,581.874,318.937,580.687,318.937,580.687C316.688,578.235,313.08,579.808,310.687,579.187C307.012,577.994,312.187,573.937,312.187,573.937"/>
<path stroke-width="0.5" d="M288.187,456.187"/>
<path stroke="none" fill="rgb(0,0,0)" d="M210.937,510.937C194.499,518.499,186.999,520.5,170.437,499.687C154.5,498.499,149.499,501,131.437,479.437C150.999,477.499,139.999,474.999,160.687,459.937C181.999,444.999,190.5,436.5,211.687,460.687C224.499,457.999,228.999,454.5,238.687,447.187C237.999,446.499,237.187,500.437,237.187,500.437L210.937,510.937Z"/>
<path stroke="none" fill="rgb(255,255,255)" d="M207.187,526.687C205.999,514.5,204,505.999,235.687,490.687L242.437,509.437L207.187,526.687Z"/>
<path stroke-width="0.2" d="M207.187,526.687C205.999,514.5,204,505.999,235.687,490.687L242.437,509.437L207.187,526.687Z"/>
<path stroke="none" fill="rgb(0,0,0)" d="M294.187,627.937C288.57,618.521,284.82,617.313,279.937,615.187C275.178,613.685,271.428,605.224,277.687,587.437C274.106,586.485,275.178,585.88,275.437,582.937C271.428,599.178,270.356,606.432,259.687,609.187C248.928,612.477,245.713,589.506,247.687,566.437L228.937,554.437C224.638,578.85,235.955,576.379,212.437,600.937C194.169,620.226,195.893,654.791,225.187,658.687C223.213,667.485,233.928,678.969,258.937,677.437C284.285,676.552,281.437,667.687,281.437,667.687C302.499,667.485,334.964,665.941,301.687,615.187C306.249,639.678,303.57,643.305,296.437,646.687C299.285,634.238,294.187,627.937,294.187,627.937Z"/>
<path stroke="none" fill="rgb(178,178,178)" d="M207.187,524.437C214.749,519.249,241.687,508.687,241.687,508.687L238.687,504.187C231.999,502.999,214.5,508.749,206.437,519.187C207,522.499,207.187,524.437,207.187,524.437Z"/>
<path stroke-width="0.2" d="M207.187,524.437C214.749,519.249,241.687,508.687,241.687,508.687L238.687,504.187C231.999,502.999,214.5,508.749,206.437,519.187C207,522.499,207.187,524.437,207.187,524.437Z"/>
<path stroke="none" fill="rgb(255,255,255)" d="M297.937,546.187C272.625,574.624,248.499,595.999,195.187,568.687C196.259,524.417,214.491,504.332,239.437,510.187L297.937,546.187Z"/>
<path stroke-width="0.2" d="M297.937,546.187C272.625,574.624,248.499,595.999,195.187,568.687C196.259,524.417,214.491,504.332,239.437,510.187L297.937,546.187Z"/>
<path stroke="none" fill="rgb(204,204,204)" d="M351.187,541.687L366.937,540.187C358.5,509.499,357,489.499,357.187,481.687C323.499,482.499,295.5,485.499,284.437,477.187L298.687,468.187L298.687,456.937L270.187,450.937L238.687,483.187L240.937,513.187C250.5,537.999,252.499,547.5,282.187,549.937C306.25,549.999,334.453,541.701,343.687,542.437C342.575,538.175,346.736,538.054,351.187,541.687Z"/>
<path stroke-width="0.2" d="M351.187,541.687L366.937,540.187C358.5,509.499,357,489.499,357.187,481.687C323.499,482.499,295.5,485.499,284.437,477.187L298.687,468.187L298.687,456.937L270.187,450.937L238.687,483.187L240.937,513.187C250.5,537.999,252.499,547.5,282.187,549.937C306.25,549.999,334.453,541.701,343.687,542.437C342.575,538.175,346.736,538.054,351.187,541.687Z"/>
<path stroke="none" fill="rgb(0,0,0)" d="M333.187,484.687C343.249,458.25,371.499,465.999,348.937,418.687C358.999,348.499,378,357,363.187,336.187C363.187,336.187,358.5,333,358.687,333.187C359.499,333,352.999,327.999,358.687,327.187C364.999,327,370.999,316.5,373.687,253.687L381.187,245.437C381.187,245.437,370.999,220.999,370.687,220.687C360.499,246.999,357.999,252.999,351.187,261.187C339.999,237.999,331.5,220.5,328.687,211.687C300.999,229.5,264.999,249.999,232.687,244.687C247.5,286.999,246,299.499,274.687,320.437C270,331.5,268.688,334.633,265.687,336.187C255.75,341.749,261.89,340.771,250.687,375.187C247.5,385.999,249.499,384,255.187,399.187C252.499,396.999,253.5,400.999,253.687,402.187C253.5,403.999,252.056,400.023,250.687,402.187C234.999,439.999,219.499,489.499,249.187,534.187C238.5,503.499,242.101,477.13,259.687,462.937C269.499,455.499,278.749,453.249,291.187,456.937C297.499,460.999,299.549,465.787,282.187,476.437C292.5,487.5,333.187,484.687,333.187,484.687Z"/>
<path stroke="none" fill="rgb(0,0,0)" d="M456.937,576.187C454.935,574.232,453.509,595.216,479.437,582.937C495.65,573.321,495.93,560.263,482.437,560.437C486.249,565.999,491.681,565.465,478.687,574.687C463.443,585.891,460.318,578.924,456.937,576.187Z"/>
<path stroke="none" fill="rgb(255,255,255)" d="M460.687,581.437C463.386,583.698,467.527,583.936,470.437,583.687C473.751,582.759,473.437,581.437,473.437,581.437C461.734,583.84,458.89,579.949,460.687,581.437Z"/>
<path stroke="none" fill="rgb(0,0,0)" d="M310.687,647.437C329.088,651.659,328.749,623.692,320.437,607.687C319.106,621.273,316.427,636.386,310.687,635.437C304.643,635.176,310.687,647.437,310.687,647.437Z"/>
<path stroke="none" fill="rgb(0,0,0)" d="M284.437,663.937C286.964,677.157,280.535,689.246,281.437,689.437C289.106,677.76,288.187,665.437,288.187,665.437L284.437,663.937Z"/>
<path stroke-width="0.2" d="M274.687,683.437C278.928,678.969,279.999,668.693,279.187,665.437"/>
<path stroke-width="0.2" d="M276.187,686.437C284.393,677.035,283.687,661.687,283.687,661.687"/>
<path stroke="none" fill="rgb(0,0,0)" d="M297.937,661.687C312.601,661.439,312.143,677.157,310.687,680.437C308.928,672.321,305.178,666.275,292.687,664.687L297.937,661.687Z"/>
<path stroke-width="0.2" d="M294.937,661.687C298.749,666.275,302.499,675.342,294.187,683.437"/>
<path stroke-width="0.2" d="M300.187,681.937C304.264,669.254,303.813,670.806,292.687,656.437"/>
<path stroke-width="0.2" d="M312.187,648.937C321.464,649.077,330.57,646.659,329.437,627.937"/>
<path stroke-width="0.2" d="M307.687,651.187C316.268,651.329,319.056,653.024,327.187,645.937C330.445,642.802,331.099,637.617,330.937,637.687"/>
<path stroke-width="0.2" d="M304.687,665.437C305.628,663.873,321.03,667.071,321.187,651.937"/>
<path stroke-width="0.5" d="M311.437,639.937C311.437,639.937,317.892,638.967,312.937,617.437"/>
<path stroke="none" fill="rgb(0,0,0)" d="M313.687,612.937C315.454,614.261,313.5,617.374,297.187,615.187C310.374,616.624,311.874,611.874,313.687,612.937Z"/>
<path stroke="none" fill="rgb(255,255,255)" d="M308.437,604.687C309.832,600.874,309.124,601.249,307.687,598.687C302.25,600.624,303.249,599.874,298.687,602.437C304.249,604.749,308.374,605.25,308.437,604.687Z"/>
<path stroke="none" fill="rgb(0,0,0)" d="M307.687,604.687C305.462,602.81,305.48,601.489,307.687,598.687C309.26,601.307,309.488,602.172,308.437,604.687C308.562,604.936,308.19,604.988,307.687,604.687Z"/>
<path stroke-width="0.2" d="M305.437,583.687C304.686,582.561,306.499,579.375,309.187,579.937"/>
<path stroke="none" fill="rgb(0,0,0)" d="M311.437,574.687C310.249,573.897,309.999,573.436,304.687,569.437C306.228,564.611,308.062,564.013,308.437,564.187C309.774,566.475,307.662,569.564,306.937,569.437C311.811,571.749,311.625,572.499,312.187,573.937C311.686,574.749,311.175,574.535,311.437,574.687Z"/>
<path d="M298.687,603.187C301.999,600.436,304.294,599.523,307.687,598.687C308.187,598.875,308.562,598.5,308.437,597.937"/>
<path stroke="none" fill="rgb(0,0,0)" d="M297.187,602.437C299.938,602.85,307.686,603.061,311.437,607.687C307.812,606,297.011,602.128,297.187,602.437Z"/>
<path stroke="none" fill="rgb(0,0,0)" d="M213.187,576.187C218.673,549.919,230.861,532.355,245.437,526.687C243.75,514.5,209.749,494.25,195.187,568.687C203.749,572.25,213.346,576.9,213.187,576.187Z"/>
<path stroke-width="0.2" d="M343.687,541.687C333.375,534.75,318.249,525.499,312.187,521.437"/>
<path stroke-width="0.2" d="M351.187,541.687C337.935,530.578,327.199,525.581,312.937,517.687"/>
<path stroke-width="0.3" d="M312.937,495.187C291.75,483.499,276.249,475.999,273.937,465.937"/>
<path stroke-width="0.5" d="M228.937,580.687C235.5,570.999,241.249,554.749,245.437,528.187"/>
<path stroke="none" fill="rgb(0,0,0)" d="M234.937,580.687C246,555.75,246.75,537.75,245.437,525.937C252.124,560.499,243.75,567.75,239.437,581.437C240,581.499,237,581.749,234.937,580.687Z"/>
<path stroke="none" fill="rgb(178,178,178)" d="M248.437,580.687C253.168,564.605,256.749,553.749,249.937,535.687C257.499,552.75,259.125,558.936,252.937,579.937C251.028,580.149,248.516,580.879,248.437,580.687Z"/>
<path stroke-width="0.2" d="M248.437,580.687C253.168,564.605,256.749,553.749,249.937,535.687C257.499,552.75,259.125,558.936,252.937,579.937C251.028,580.149,248.516,580.879,248.437,580.687Z"/>
<path stroke="none" fill="rgb(0,0,0)" d="M258.187,577.687C262.047,567.878,262.5,552.499,258.937,543.937C267.75,548.25,274.999,549.75,278.437,549.937C281.749,555.249,282.75,556.749,279.187,564.937C270.059,573.13,257.909,578.634,258.187,577.687Z"/>
<path stroke="none" fill="rgb(0,0,0)" d="M207.187,524.437"/>
<path stroke="none" fill="rgb(0,0,0)" d="M207.187,514.687C207.184,514.86,228.75,497.499,237.937,500.437L235.687,494.437C225,498,213.923,503.453,207.187,514.687Z"/>
<path stroke="none" fill="rgb(255,255,255)" d="M190.687,516.187C175.471,497.417,168.499,492,171.187,453.187C184.999,443.499,189,443.499,199.687,450.187C186.499,469.5,181.999,490.999,198.187,515.437C194.499,516,191.338,516.405,190.687,516.187Z"/>
<path stroke-width="0.2" d="M190.687,516.187C175.471,497.417,168.499,492,171.187,453.187C184.999,443.499,189,443.499,199.687,450.187C186.499,469.5,181.999,490.999,198.187,515.437C194.499,516,191.338,516.405,190.687,516.187Z"/>
<path stroke="none" fill="rgb(255,255,255)" d="M201.187,514.687C193.999,498.999,186.999,483.999,203.437,453.187C206.499,454.999,211.5,460.5,211.687,460.687C203.499,480.499,193.5,501.499,205.687,510.187C204.999,499.5,210.499,490.5,232.687,473.437C232.5,483,231.499,482.499,232.687,492.187C220.999,498,210,504.999,207.937,512.437L201.187,514.687Z"/>
<path stroke-width="0.2" d="M201.187,514.687C193.999,498.999,186.999,483.999,203.437,453.187C206.499,454.999,211.5,460.5,211.687,460.687C203.499,480.499,193.5,501.499,205.687,510.187C204.999,499.5,210.499,490.5,232.687,473.437C232.5,483,231.499,482.499,232.687,492.187C220.999,498,210,504.999,207.937,512.437L201.187,514.687Z"/>
<path stroke="rgb(255,255,255)" stroke-width="0.5" d="M267.937,442.687L253.687,402.187"/>
<path stroke="rgb(255,255,255)" stroke-width="0.5" d="M269.437,435.187C269.437,435.187,258.499,406.999,258.187,407.437"/>
<path stroke="rgb(127,127,127)" stroke-width="0.4" d="M293.437,480.187C297.499,463.5,298.5,460.5,288.937,445.687"/>
<path stroke="rgb(255,255,255)" stroke-width="0.3" d="M348.937,417.937C338.393,403.977,348.386,416.157,341.437,408.937"/>
<path stroke="none" fill="rgb(255,255,255)" d="M336.187,339.937L338.437,329.437L342.937,339.187L340.687,348.937L336.187,339.937Z"/>
<path stroke-width="0.2" d="M336.187,339.937L338.437,329.437L342.937,339.187L340.687,348.937L336.187,339.937Z"/>
<path stroke="none" fill="rgb(255,255,255)" d="M339.187,339.187"/>
<path stroke-width="0.2" d="M339.187,339.187"/>
<path stroke="none" fill="rgb(255,255,255)" d="M328.687,340.687L331.687,330.187L335.437,339.937L333.187,349.687L328.687,340.687Z"/>
<path stroke-width="0.2" d="M328.687,340.687L331.687,330.187L335.437,339.937L333.187,349.687L328.687,340.687Z"/>
<path stroke="none" fill="rgb(255,255,255)" d="M332.437,339.937"/>
<path stroke-width="0.2" d="M332.437,339.937"/>
<path stroke="none" fill="rgb(255,255,255)" d="M321.937,340.687L324.937,330.937L328.687,339.937L325.687,350.437L321.937,340.687Z"/>
<path stroke-width="0.2" d="M321.937,340.687L324.937,330.937L328.687,339.937L325.687,350.437L321.937,340.687Z"/>
<path stroke="none" fill="rgb(255,255,255)" d="M324.937,340.687"/>
<path stroke-width="0.2" d="M324.937,340.687"/>
<path stroke="none" fill="rgb(255,255,255)" d="M314.437,340.687L318.187,330.937L321.187,340.687L318.187,350.437L314.437,340.687Z"/>
<path stroke-width="0.2" d="M314.437,340.687L318.187,330.937L321.187,340.687L318.187,350.437L314.437,340.687Z"/>
<path stroke="none" fill="rgb(255,255,255)" d="M318.187,340.687"/>
<path stroke-width="0.2" d="M318.187,340.687"/>
<path stroke="none" fill="rgb(255,255,255)" d="M306.937,340.687L312.187,330.937L314.437,340.687L309.187,350.437L306.937,340.687Z"/>
<path stroke-width="0.2" d="M306.937,340.687L312.187,330.937L314.437,340.687L309.187,350.437L306.937,340.687Z"/>
<path stroke="none" fill="rgb(255,255,255)" d="M310.687,340.687"/>
<path stroke-width="0.2" d="M310.687,340.687"/>
<path stroke="none" fill="rgb(255,255,255)" d="M300.187,339.937L304.687,330.187L306.937,340.687L302.437,349.687L300.187,339.937Z"/>
<path stroke-width="0.2" d="M300.187,339.937L304.687,330.187L306.937,340.687L302.437,349.687L300.187,339.937Z"/>
<path stroke="none" fill="rgb(255,255,255)" d="M303.187,339.937"/>
<path stroke-width="0.2" d="M303.187,339.937"/>
<path stroke="none" fill="rgb(255,255,255)" d="M292.687,339.187L298.687,330.187L300.187,339.937L294.187,349.687L292.687,339.187Z"/>
<path stroke-width="0.2" d="M292.687,339.187L298.687,330.187L300.187,339.937L294.187,349.687L292.687,339.187Z"/>
<path stroke="none" fill="rgb(255,255,255)" d="M296.437,339.937"/>
<path stroke-width="0.2" d="M296.437,339.937"/>
<path stroke="none" fill="rgb(255,255,255)" d="M285.937,337.687L291.187,328.687L292.687,339.187L287.437,348.187L285.937,337.687Z"/>
<path stroke-width="0.2" d="M285.937,337.687L291.187,328.687L292.687,339.187L287.437,348.187L285.937,337.687Z"/>
<path stroke="none" fill="rgb(255,255,255)" d="M288.937,338.437"/>
<path stroke-width="0.2" d="M288.937,338.437"/>
<path stroke="none" fill="rgb(255,255,255)" d="M278.437,336.187L285.187,327.937L285.187,338.437L278.437,346.687L278.437,336.187Z"/>
<path stroke-width="0.2" d="M278.437,336.187L285.187,327.937L285.187,338.437L278.437,346.687L278.437,336.187Z"/>
<path stroke="none" fill="rgb(255,255,255)" d="M282.187,336.937"/>
<path stroke-width="0.2" d="M282.187,336.937"/>
<path stroke="none" fill="rgb(255,255,255)" d="M272.437,332.437L279.937,324.937L278.437,335.437L270.937,342.937L272.437,332.437Z"/>
<path stroke-width="0.2" d="M272.437,332.437L279.937,324.937L278.437,335.437L270.937,342.937L272.437,332.437Z"/>
<path stroke="none" fill="rgb(255,255,255)" d="M275.437,333.937"/>
<path stroke-width="0.2" d="M275.437,333.937"/>
<path stroke="rgb(255,255,255)" d="M266.437,335.437C276.249,351.499,284.658,349.999,342.937,349.687C363.999,349.999,363.187,336.187,363.187,336.187"/>
<path stroke="rgb(255,255,255)" d="M270.937,321.187C294,331.999,309,334.999,361.687,324.187"/>
<path stroke="none" fill="rgb(255,255,255)" d="M351.187,325.687L364.687,321.937L361.687,347.437L348.187,350.437L351.187,325.687Z"/>
<path stroke-width="0.2" d="M351.187,325.687L364.687,321.937L361.687,347.437L348.187,350.437L351.187,325.687Z"/>
<path stroke="none" fill="rgb(255,255,255)" d="M356.437,336.187"/>
<path stroke-width="0.2" d="M356.437,336.187"/>
<path stroke="none" fill="rgb(0,0,0)" d="M273.937,347.437C281.499,351.499,280.229,357.581,310.687,337.687C316.5,334.5,322.5,337.999,351.187,357.187L282.187,360.187L273.937,347.437Z"/>
<path stroke="rgb(255,255,255)" stroke-width="0.5" d="M269.437,355.687C277.749,353.25,284.25,352.5,288.937,349.687"/>
<path stroke="rgb(255,255,255)" stroke-width="0.5" d="M353.437,357.937C347.25,354,345.499,353.499,339.937,349.687"/>
<path stroke="rgb(255,255,255)" stroke-width="0.3" d="M354.937,272.437C359.749,281.499,361.249,285,363.187,290.437"/>
<path stroke="rgb(127,127,127)" stroke-width="0.5" d="M354.187,219.187C339,195,327,175.999,316.687,165.937"/>
<path stroke="rgb(127,127,127)" stroke-width="0.5" d="M322.687,196.687C309.999,150,307.999,135,234.937,48.187"/>
<path stroke="rgb(127,127,127)" d="M240.937,241.687C231.999,227.499,215.23,198.442,214.687,198.187C192.581,154.999,177.999,109.999,163.687,70.687"/>
<path stroke-width="0.2" d="M265.687,600.937C263.575,606.113,262.121,612.993,252.937,606.937C250.125,603.468,249.763,601.704,249.937,596.437C249.763,591.472,254.306,592.179,257.437,587.437C261.212,582.301,266.484,579.301,267.187,588.187"/>
<path stroke="none" fill="rgb(76,76,76)" d="M260.437,605.437C262.485,601.351,261.939,599.94,257.437,597.937C253.216,595.706,257.759,591.472,260.437,592.687C262.849,593.237,263.393,592.531,264.187,591.937C265.211,590.768,266.665,591.826,264.937,594.187C262.667,596.412,259.758,593.942,261.187,597.187C262.303,600.999,260.437,605.437,260.437,605.437Z"/>
<path stroke-width="0.2" d="M260.437,605.437C262.485,601.351,261.939,599.94,257.437,597.937C253.216,595.706,257.759,591.472,260.437,592.687C262.849,593.237,263.393,592.531,264.187,591.937C265.211,590.768,266.665,591.826,264.937,594.187C262.667,596.412,259.758,593.942,261.187,597.187C262.303,600.999,260.437,605.437,260.437,605.437Z"/>
<path stroke-width="0.2" d="M257.437,606.937C254.124,605.055,251.579,604.173,251.437,597.937C251.579,592.179,258.486,590.415,258.937,588.937"/>
<path stroke="none" fill="rgb(255,255,255)" d="M257.437,584.437C258.6,581.67,262.018,580.249,264.937,581.437C268.04,582.587,269.505,585.904,267.937,588.937C267.096,591.75,263.678,593.172,260.437,591.937C257.656,590.833,256.191,587.515,257.437,584.437Z"/>
<path stroke-width="0.2" d="M257.437,584.437C258.6,581.67,262.018,580.249,264.937,581.437C268.04,582.587,269.505,585.904,267.937,588.937C267.096,591.75,263.678,593.172,260.437,591.937C257.656,590.833,256.191,587.515,257.437,584.437Z"/>
<path stroke="none" fill="rgb(255,255,255)" d="M262.687,586.687"/>
<path stroke-width="0.2" d="M262.687,586.687"/>
<path stroke="none" fill="rgb(51,51,51)" d="M258.187,586.687L263.437,582.187L267.187,587.437L262.687,591.187L258.187,586.687Z"/>
<path stroke="none" fill="rgb(51,51,51)" d="M262.687,586.687"/>
<path stroke="none" fill="rgb(0,0,0)" d="M309.187,579.937C310.749,580.5,313.249,583.125,314.437,580.687"/>
<path stroke="none" fill="rgb(255,255,255)" d="M307.687,565.687C307.879,566.014,306.793,566.512,306.937,566.437C307.646,566.85,307.68,566.599,307.687,566.437C307.923,566.129,307.97,566.309,307.687,565.687Z"/>
<path stroke="none" fill="rgb(255,255,255)" d="M510.187,103.687C509.563,104.894,511.5,88.999,495.187,74.437L495.187,67.687C505.999,78.999,518.581,86.357,510.187,103.687Z"/>
<path stroke-width="0.2" d="M403.687,534.187C413.25,533.749,415.749,534.249,417.937,534.937"/>
<path stroke="rgb(255,255,255)" stroke-width="0.3" d="M538.687,628.687C541.999,624.999,547.687,619.687,547.687,619.687"/>
<path stroke="rgb(255,255,255)" stroke-width="0.3" d="M548.437,629.437C552.249,625.249,557.437,620.437,557.437,620.437"/>
<path stroke-width="0.2" d="M518.437,587.437C522.499,585.999,525.999,587.499,526.687,587.437"/>
<path stroke-width="0.2" d="M513.937,617.437C517.999,613.999,518.499,611.499,519.937,607.687"/>
<path stroke-width="0.2" d="M528.187,613.687C533.25,615.249,532.5,615.499,537.937,614.437"/>
<path stroke="none" fill="rgb(255,255,255)" d="M537.937,637.687C537.249,618,532.999,617.499,531.187,617.437C529.5,617.499,528.234,615.254,528.187,622.687C529.249,642.999,528.774,643.325,534.187,642.937C538.999,642.249,538.999,642.249,540.187,630.937L537.937,630.937C537.937,630.937,537.999,628.999,537.937,630.937C537.999,633.499,537.937,637.687,537.937,637.687Z"/>
<path stroke-width="0.2" d="M537.937,637.687C537.249,618,532.999,617.499,531.187,617.437C529.5,617.499,528.234,615.254,528.187,622.687C529.249,642.999,528.774,643.325,534.187,642.937C538.999,642.249,538.999,642.249,540.187,630.937L537.937,630.937C537.937,630.937,537.999,628.999,537.937,630.937C537.999,633.499,537.937,637.687,537.937,637.687Z"/>
<path stroke="none" fill="rgb(178,178,178)" d="M507.187,650.437C510,648.499,510.249,645.75,511.687,642.937C513.249,640.749,508.5,638.25,508.687,637.687C508.5,637.749,507.187,650.437,507.187,650.437Z"/>
<path stroke-width="0.2" d="M507.187,650.437C510,648.499,510.249,645.75,511.687,642.937C513.249,640.749,508.5,638.25,508.687,637.687C508.5,637.749,507.187,650.437,507.187,650.437Z"/>
<path stroke="none" fill="rgb(255,255,255)" d="M528.937,639.187C528.499,642.999,526.999,642.75,523.687,642.937C520.999,642.75,519.75,643.999,519.187,632.437C519.187,632.437,519.75,637.999,519.937,640.687C519.75,643.999,518.749,644.25,515.437,644.437C511.749,644.25,511.749,645.999,509.437,641.437C506.749,636.499,505.749,633.249,505.687,633.187C506.25,633.249,509.437,627.937,509.437,627.937C511.5,620.25,512.749,619.749,515.437,619.687C518.25,619.249,520.249,618.249,519.187,623.437C520.999,618.249,520.999,617.749,524.437,616.687C528.499,616.249,528.499,618.249,528.187,622.687C528.499,626.749,528.937,639.187,528.937,639.187Z"/>
<path stroke-width="0.2" d="M528.937,639.187C528.499,642.999,526.999,642.75,523.687,642.937C520.999,642.75,519.75,643.999,519.187,632.437C519.187,632.437,519.75,637.999,519.937,640.687C519.75,643.999,518.749,644.25,515.437,644.437C511.749,644.25,511.749,645.999,509.437,641.437C506.749,636.499,505.749,633.249,505.687,633.187C506.25,633.249,509.437,627.937,509.437,627.937C511.5,620.25,512.749,619.749,515.437,619.687C518.25,619.249,520.249,618.249,519.187,623.437C520.999,618.249,520.999,617.749,524.437,616.687C528.499,616.249,528.499,618.249,528.187,622.687C528.499,626.749,528.937,639.187,528.937,639.187Z"/>
<path stroke="none" fill="rgb(255,255,255)" d="M507.937,636.937C512.686,638.23,515.603,640.999,515.437,640.687C517.838,637.468,517.493,629.28,508.687,625.687C508.749,625.249,501.999,634.999,501.937,634.687C502.5,634.5,507.937,636.937,507.937,636.937Z"/>
<path stroke-width="0.2" d="M507.937,636.937C512.686,638.23,515.603,640.999,515.437,640.687C517.838,637.468,517.493,629.28,508.687,625.687C508.749,625.249,501.999,634.999,501.937,634.687C502.5,634.5,507.937,636.937,507.937,636.937Z"/>
<path stroke="none" fill="rgb(255,255,255)" d="M493.687,571.687C495.17,563.424,503.633,565.498,503.437,576.187C503.25,596.25,515.749,586.249,508.687,636.937C508.3,641.976,510,650.749,506.437,651.187C501.513,652.567,500.435,652.259,498.937,644.437C498.499,639.999,496.5,646.249,495.937,648.187C495.499,650.749,493.749,651,490.687,650.437C487.749,649.5,488.252,648.664,487.687,645.187C486.193,640.012,486.75,641.749,484.687,645.187C482.389,649.015,481.305,648.011,477.187,647.437C474.999,646.749,474.783,644.478,474.937,640.687C475.5,638.749,474,642.249,472.687,644.437C471,646.749,469.249,645.499,466.687,645.187C463.749,645.499,463.249,641.003,463.687,635.437C463.511,635.25,462.937,626.437,462.937,626.437L449.437,627.187C459.249,618.499,465.605,612.863,468.187,597.187C468.75,594,468,592.249,469.687,592.687C459.718,593.497,459.195,585.397,460.687,585.937C466.249,587.749,471.75,589.249,476.437,586.687C481.749,584.749,486.249,584.25,489.187,585.937C490.249,582.75,492,578.749,493.687,571.687Z"/>
<path stroke-width="0.2" d="M493.687,571.687C495.17,563.424,503.633,565.498,503.437,576.187C503.25,596.25,515.749,586.249,508.687,636.937C508.3,641.976,510,650.749,506.437,651.187C501.513,652.567,500.435,652.259,498.937,644.437C498.499,639.999,496.5,646.249,495.937,648.187C495.499,650.749,493.749,651,490.687,650.437C487.749,649.5,488.252,648.664,487.687,645.187C486.193,640.012,486.75,641.749,484.687,645.187C482.389,649.015,481.305,648.011,477.187,647.437C474.999,646.749,474.783,644.478,474.937,640.687C475.5,638.749,474,642.249,472.687,644.437C471,646.749,469.249,645.499,466.687,645.187C463.749,645.499,463.249,641.003,463.687,635.437C463.511,635.25,462.937,626.437,462.937,626.437L449.437,627.187C459.249,618.499,465.605,612.863,468.187,597.187C468.75,594,468,592.249,469.687,592.687C459.718,593.497,459.195,585.397,460.687,585.937C466.249,587.749,471.75,589.249,476.437,586.687C481.749,584.749,486.249,584.25,489.187,585.937C490.249,582.75,492,578.749,493.687,571.687Z"/>
<path stroke-width="0.2" d="M486.187,592.687C489,595.249,492.117,593.077,492.187,592.687C494.972,586.027,477,591.75,467.437,592.687"/>
<path stroke-width="0.4" d="M469.687,592.687C474.249,595.749,474.999,595.999,481.687,595.687"/>
<path stroke-width="2.5" d="M477.937,630.187L478.687,620.437"/>
<path stroke-width="2.5" d="M479.437,617.437L480.187,610.687"/>
<path stroke-width="2.5" d="M480.187,607.687C480.187,607.687,480.999,600.249,480.937,600.187"/>
<path stroke-width="2.5" d="M487.687,631.687L487.687,623.437"/>
<path stroke-width="2.5" d="M487.687,620.437L487.687,612.187"/>
<path stroke-width="2.5" d="M487.687,609.187C488.25,609.249,487.687,602.437,487.687,602.437"/>
<path stroke-width="2.5" d="M498.187,630.937L497.437,623.437"/>
<path stroke-width="2.5" d="M496.687,620.437L495.187,612.187"/>
<path stroke-width="2.5" d="M495.187,609.187L493.687,601.687"/>
<path stroke-width="0.2" d="M465.187,636.937C464.499,629.749,461.25,628.749,464.437,616.687"/>
<path stroke-width="0.5" d="M501.937,588.937C503.25,585,503.499,583.249,503.437,576.937"/>
<path stroke="none" fill="rgb(255,255,255)" d="M522.187,86.437C521.636,87.352,523.021,75.656,511.687,64.687L511.687,60.187C519.089,68.298,528.082,73.712,522.187,86.437Z"/>
<path stroke="none" fill="rgb(255,255,255)" d="M553.687,99.937C553.09,100.448,554.712,86.669,540.937,74.437L540.937,68.437C550.104,78,560.645,84.378,553.687,99.937Z"/>
<path stroke="none" fill="rgb(255,255,255)" d="M482.437,94.687C482.428,95.698,483.811,84.002,472.687,73.687L472.687,68.437C479.88,76.644,488.874,82.058,482.437,94.687Z"/>
<path stroke="none" fill="rgb(255,255,255)" d="M450.937,87.937C450.689,88.027,451.73,80.967,443.437,74.437L443.437,71.437C448.773,76.526,455.537,79.794,450.937,87.937Z"/>
<path stroke-width="3" d="M15.937,40.687L567.937,39.937L567.937,716.437"/>
<path stroke-width="3" d="M15.937,39.937L567.937,39.937L567.937,716.437L15.937,716.437L15.937,39.937Z"/>
</g>
</svg>
